<svg width="16" height="16" viewBox="0 0 16 16" fill="none" xmlns="http://www.w3.org/2000/svg">
<path fill-rule="evenodd" clip-rule="evenodd" d="M12.2127 9.62199C13.044 8.55022 13.4358 7.20201 13.3084 5.85163C13.1809 4.50125 12.5438 3.25014 11.5267 2.35283C10.5095 1.45551 9.18872 0.979401 7.83298 1.02135C6.47725 1.06331 5.18842 1.62017 4.22869 2.57866C3.26813 3.53781 2.70945 4.82713 2.66649 6.1839C2.62354 7.54066 3.09955 8.86275 3.99751 9.88074C4.89548 10.8987 6.14783 11.536 7.49934 11.6627C8.85086 11.7894 10.1998 11.396 11.2714 10.5627L11.3 10.5927L14.128 13.4213C14.19 13.4833 14.2635 13.5324 14.3444 13.5659C14.4254 13.5994 14.5121 13.6167 14.5997 13.6167C14.6873 13.6167 14.774 13.5994 14.855 13.5659C14.9359 13.5324 15.0094 13.4833 15.0714 13.4213C15.1333 13.3594 15.1824 13.2858 15.216 13.2049C15.2495 13.124 15.2667 13.0373 15.2667 12.9497C15.2667 12.8621 15.2495 12.7753 15.216 12.6944C15.1824 12.6135 15.1333 12.5399 15.0714 12.478L12.2427 9.64999C12.233 9.64038 12.2229 9.63104 12.2127 9.62199ZM10.8287 3.52199C11.2051 3.89231 11.5044 4.33349 11.7095 4.82008C11.9145 5.30667 12.0212 5.82904 12.0234 6.35707C12.0255 6.88509 11.9231 7.40832 11.722 7.89656C11.5209 8.38481 11.2252 8.82841 10.8518 9.20178C10.4784 9.57516 10.0348 9.87091 9.5466 10.072C9.05836 10.2731 8.53513 10.3755 8.00711 10.3733C7.47908 10.3712 6.95671 10.2645 6.47012 10.0595C5.98353 9.85441 5.54235 9.55506 5.17203 9.17866C4.43197 8.42645 4.01913 7.41228 4.02343 6.35707C4.02772 5.30185 4.44881 4.29108 5.19497 3.54493C5.94112 2.79877 6.95189 2.37769 8.00711 2.37339C9.06232 2.36909 10.0765 2.78193 10.8287 3.52199Z" fill="#245AE4"/>
</svg>
